<svg xmlns="http://www.w3.org/2000/svg" fill="none" viewBox="0 0 339.99 345.99"><path fill="#F8F8F8" d="M248.18 40.19c19.19 17.18 31.74 41.14 51.9 75.58 20.25 34.44 48.18 79.35 37.59 106.13-10.59 26.77-59.89 35.4-106.43 52.96-46.55 17.56-90.37 43.95-130.68 38.8-40.31-5.14-77.12-41.81-86.37-82.36-9.35-40.64 8.76-85.17 21.81-125.72 12.95-40.55 20.84-77.14 43.52-93.7 22.69-16.57 60.18-13.01 91.93-6.12 31.74 6.97 57.54 17.27 76.73 34.43Z"/><path fill="#D3D3D3" d="M72.94 329.07H59.59v15.75H40.03v-15.75H0v-5.94l46.25-62.98h13.34v52.15h13.35v16.77ZM40.03 312.3v-19.62L26.04 312.3h13.99ZM84.08 302.62c0-24.4 7.12-43.63 31.97-43.63 24.73 0 31.61 19.23 31.61 43.63 0 24.26-6.86 43.36-31.61 43.36-24.85 0-31.97-19.1-31.97-43.36Zm44.04 0c0-14.72-2.85-26.08-12.05-26.08-9.32 0-12.56 11.36-12.56 26.08 0 14.58 3.24 25.68 12.56 25.68 9.2.02 12.05-11.1 12.05-25.68ZM228.14 329.07h-13.35v15.75h-19.56v-15.75h-40.04v-5.94l46.26-62.98h13.34v52.15h13.35v16.77Zm-32.91-16.77v-19.62l-13.99 19.62h13.99Z"/><path fill="#DE8E68" fill-rule="evenodd" d="M236.09 329.46h-7.25v-6.11h7.25v6.11Z"/><path fill="#000" d="M236.77 328.51v6.12h-17.25v-2.23l8.97-3.89h8.28Z"/><path fill="#DE8E68" fill-rule="evenodd" d="M123.36 254.43h-7.25v-6.11h7.25v6.11Z"/><path fill="#000" d="M124.04 253.48v6.11h-17.25v-2.22l8.98-3.89h8.27Z"/><path fill="#56CAD8" d="M228.58 171.67c.37 3.48 8.08 153.29 8.08 153.29h-8.08L189.34 183.9l39.24-12.23Z"/><path fill="#74D5DE" d="M232.73 155.17c0 20.34-7.51 38.65-22.71 38.65-20.86 0-48.49-13.25-56.09-20.73-1.9 5.59-28.81 75.99-28.81 75.99h-11.14s7.14-81.97 20.52-103c4.41-5.84 40.35-4.38 58.51 0 18.16 4.38 39.72 9.09 39.72 9.09Z"/><path fill="#D37C59" d="M178.83 36.62c.13-.63.48-1.19 1-1.57a2.61 2.61 0 0 1 1.79-.52c1.64.12 4.3 4.42 4.3 7.89 0 3.48-.98 4.79-.68 7.32.3 2.53 6.76 36.79 6.76 38.88 1.62.12 7.45-.69 7.45-.69l-4.08 16.37h-11.88l-7.67-65.94 3.01-1.74Z"/><path fill="#000" d="m190.23 42.46-2.51 10.07s-24.69-2.86-27.38-3.52c-2.7-.66 1.36-17.32 4.13-16.64 2.77.68 25.76 10.09 25.76 10.09Z"/><path fill="#FED385" d="M212.85 72.26c31.58 0 23.79 81.3 20.11 84.34-3.69 3.04-42.96-7.22-46.22-11.75-3.26-4.53 2.94-72.59 26.11-72.59Z"/><path fill="#DE8E68" d="M201.58 92.9c-1.74.59-11.92 4.54-11.92 4.54-.17-2.04-7.99-42.47-8.47-44.95a20.25 20.25 0 0 0 1.43-7.77c0-6.64-2.7-12.03-6.04-12.03s-6.04 5.39-6.04 12.03c-.05 2.78.49 5.53 1.57 8.09-.37 5.06-3.74 53.05 3.13 59.89 7.25 7.23 24.87.71 35.58-4.14 2.3-.79-.83-17.93-9.24-15.66Z"/><path fill="#000" fill-rule="evenodd" d="m187.63 44.93 6.39 1.69-1.19 4.45-6.38-1.69 1.18-4.45Z"/><path fill="#FED892" d="M232.98 87.2c4.81 9.31-14.25 26.08-19.53 24.83-5.27-1.25-13.78-19.99-12.19-23.36 1.59-3.36 27.03-10.53 31.72-1.47Z"/><path fill="#D37C59" d="M214.78 80.14c0 1.58-9.64 1.98-9.64 0V62h9.64v18.14Z"/><path fill="#DC8E6C" fill-rule="evenodd" d="M219.07 52.24c0 11.21-5.64 20.29-12.6 20.29-6.95 0-12.59-9.08-12.59-20.29 0-11.21 5.64-20.29 12.59-20.29 6.96 0 12.6 9.08 12.6 20.29Z"/><path fill="#000" d="M197.04 38.8a8.24 8.24 0 0 0 3.73 7.43c3.76 2.55 6.43 1.42 9.19 3.82 1.45 1.45 5.01 4.25 5.05 8.57 0 3.2 1.05 4.82 1.97 4.82.93 0 3.37-.64 4.94-.64 15.41 0 33.5 15.85 68.21 15.85 18.14 0 46.59-4.56 46.59-31.09 0-14.33-5.17-31.64-32.53-31.64-17.38 0-29.55 8.49-43.82 8.49-18.34 0-25.41-6.61-38.07-6.61-9.03 0-29.33 5.21-29.33 18.85 0 5.18 1.63 6.69 2.13 6.96.17-.57 1.16-3.51 1.94-4.81Z"/><path fill="#DC8E6C" fill-rule="evenodd" d="M216.92 57.04a3.2 3.2 0 1 1-6.41 0 3.2 3.2 0 0 1 6.41 0Z"/></svg>