<svg xmlns="http://www.w3.org/2000/svg" viewBox="0 0 24 24"><path d="M10 22.588v1.398l-7.067-6.911C-.97 13.172-.97 6.828 2.929 2.929 4.818 1.04 7.329 0 10 0s5.182 1.04 7.071 2.929A9.934 9.934 0 0 1 20 10c0 1.033-.159 2.041-.46 3h-1.061c.336-.952.521-1.96.521-3a8.94 8.94 0 0 0-2.636-6.364C14.664 1.937 12.404 1 10 1s-4.664.937-6.364 2.636c-3.51 3.51-3.51 9.219 0 12.728L10 22.588ZM10 14c-2.206 0-4-1.794-4-4s1.794-4 4-4 4 1.794 4 4-1.794 4-4 4Zm3-4c0-1.654-1.346-3-3-3s-3 1.346-3 3 1.346 3 3 3 3-1.346 3-3Zm11 7v7H12v-7c0-1.103.897-2 2-2h8c1.103 0 2 .897 2 2Zm-10-1a.968.968 0 0 0-.481.141l3.42 3.42c.566.566 1.555.566 2.121 0l3.42-3.42a.968.968 0 0 0-.481-.141h-8Zm9 7v-5.965l-3.232 3.232c-.472.473-1.1.732-1.768.732s-1.296-.26-1.768-.732L13 17.035V23h10Z"/></svg>