<svg xmlns="http://www.w3.org/2000/svg" viewBox="0 0 24 24"><path d="M22.36 1.28 18.5 0l-3.86 1.28A2.38 2.38 0 0 0 13 3.55V7c0 3.52 3.56 5.58 4.65 6.12l.79.4.8-.33C20.37 12.74 24 10.97 24 7V3.55c0-1.04-.66-1.95-1.64-2.27zM23 7c0 3.34-3.16 4.87-4.13 5.26l-.4.16-.37-.2C17.14 11.76 14 9.96 14 7V3.55c0-.6.38-1.13.95-1.32l3.55-1.18 3.55 1.18c.57.19.95.72.95 1.32V7zM10 8a2 2 0 1 0-4 0 2 2 0 0 0 4 0zM7 8a1 1 0 1 1 2 0 1 1 0 0 1-2 0zm4 7v-2a1 1 0 0 0-1-1H6a1 1 0 0 0-1 1v2H4v-2c0-1.1.9-2 2-2h4a2 2 0 0 1 2 2v2zm8-12.5h-1a2 2 0 0 0 0 4v4h2v-1h-1v-3a2 2 0 0 0 0-4zm0 3h-1a1 1 0 0 1 0-2h1a1 1 0 0 1 0 2zm5 6.77V19H12.5v4H18v1H6v-1h5.5v-4H0V2.5A2.5 2.5 0 0 1 2.5 0h10.27c-.37.28-.69.62-.95 1H2.5C1.67 1 1 1.67 1 2.5V18h22v-4.77c.34-.28.68-.6 1-.96z"/></svg>