<svg xmlns="http://www.w3.org/2000/svg" xmlns:xlink="http://www.w3.org/1999/xlink" viewBox="0 0 24 24"><defs><path id="a" d="M9.8 9.8c-.76.75-1.12 1.48-1.12 2.21 0 .96.64 1.7 1.12 2.19.74.74 1.47 1.1 2.2 1.1s1.46-.37 2.2-1.1c.76-.76 1.12-1.48 1.12-2.21 0-.96-.64-1.7-1.12-2.19-1.48-1.48-2.92-1.48-4.4 0Zm3.7 3.69c-1.26 1.25-2.05.94-3 0-.56-.56-.82-1.03-.82-1.48 0-.45.27-.94.83-1.5.58-.58 1.06-.83 1.5-.83.52 0 .98.33 1.48.83.57.56.83 1.03.83 1.48 0 .45-.27.94-.83 1.5Z"/></defs><path d="M23.02 11.95c0-1.6-.82-2.48-2.52-2.7a8.2 8.2 0 0 0-.7-1.19c1.2-1.46 1.21-2.7.03-3.88-1.18-1.18-2.42-1.17-3.88.03-.4-.27-.8-.5-1.2-.68-.2-1.71-1.13-2.53-2.7-2.53-1.6 0-2.5.85-2.72 2.57-.4.19-.8.42-1.2.7-1.44-1.2-2.69-1.2-3.88 0-1.18 1.17-1.18 2.44 0 3.87-.28.4-.5.8-.7 1.2-1.72.21-2.55 1.1-2.57 2.7 0 1.6.82 2.48 2.52 2.7.2.4.42.79.7 1.2-1.2 1.45-1.21 2.69-.03 3.87 1.19 1.18 2.43 1.17 3.89-.03.4.27.79.5 1.18.69.22 1.7 1.12 2.52 2.69 2.52 1.6 0 2.51-.85 2.74-2.57.4-.19.8-.42 1.2-.69 1.45 1.2 2.69 1.2 3.88 0 1.18-1.17 1.18-2.45 0-3.88.28-.4.51-.8.7-1.2 1.72-.22 2.56-1.11 2.57-2.71ZM19.66 14a8.6 8.6 0 0 1-.94 1.6.5.5 0 0 0 .03.63c1.38 1.49.9 2.2.3 2.8-.63.63-1.32 1.08-2.81-.3a.5.5 0 0 0-.64-.03c-.54.4-1.07.71-1.6.94a.5.5 0 0 0-.29.41c-.14 1.62-.78 1.94-1.77 1.95-1-.03-1.6-.3-1.73-1.9a.5.5 0 0 0-.3-.42 7.9 7.9 0 0 1-1.59-.93.5.5 0 0 0-.63.04c-1.5 1.38-2.21.91-2.81.32-.6-.6-1.06-1.3.32-2.8a.5.5 0 0 0 .04-.63 8.1 8.1 0 0 1-.94-1.6.5.5 0 0 0-.42-.3c-1.59-.12-1.9-.75-1.9-1.72 0-.99.34-1.63 1.95-1.76a.5.5 0 0 0 .41-.3 8.6 8.6 0 0 1 .95-1.6.5.5 0 0 0-.04-.63c-1.37-1.49-.9-2.2-.3-2.8.61-.6 1.33-1.08 2.82.3a.5.5 0 0 0 .63.03c.54-.4 1.08-.71 1.6-.94a.5.5 0 0 0 .3-.41c.13-1.62.77-1.94 1.76-1.95.99-.03 1.6.3 1.73 1.9a.5.5 0 0 0 .3.42 7.9 7.9 0 0 1 1.6.93.5.5 0 0 0 .63-.03c1.5-1.39 2.21-.92 2.8-.33.6.6 1.07 1.3-.32 2.8a.5.5 0 0 0-.03.64c.4.54.71 1.07.93 1.58a.5.5 0 0 0 .42.3c1.59.13 1.9.76 1.9 1.73 0 .99-.33 1.63-1.94 1.77a.5.5 0 0 0-.42.3Z"/></svg>