<svg xmlns="http://www.w3.org/2000/svg" xml:space="preserve" viewBox="0 0 24 24"><path d="M12 0a12 12 0 1 0 0 24 12 12 0 0 0 0-24zm5.56 8.16c-.18 1.9-.96 6.5-1.36 8.63-.16.9-.5 1.2-.82 1.23-.7.06-1.22-.46-1.9-.9-1.05-.7-1.65-1.13-2.68-1.8-1.18-.78-.41-1.21.26-1.91.18-.19 3.25-2.98 3.3-3.23.02-.04.02-.15-.05-.22s-.17-.04-.24-.02c-.11.02-1.8 1.14-5.07 3.34-.48.33-.91.5-1.3.49-.43-.01-1.25-.25-1.86-.45-.75-.24-1.35-.37-1.3-.78.03-.22.32-.44.9-.67a585.6 585.6 0 0 1 6.99-3.01c3.33-1.39 4.02-1.63 4.48-1.64.56 0 .7.46.65.94z" style="fill-rule:evenodd;clip-rule:evenodd"/></svg>