<svg xmlns="http://www.w3.org/2000/svg" viewBox="0 0 24 24"><path d="M15.707 11.707 13.414 14l2.293 2.293a.999.999 0 1 1-1.414 1.414L12 15.414l-2.293 2.293a.997.997 0 0 1-1.414 0 .999.999 0 0 1 0-1.414L10.586 14l-2.293-2.293a.999.999 0 1 1 1.414-1.414L12 12.586l2.293-2.293a.999.999 0 1 1 1.414 1.414ZM23 5a1 1 0 0 1-1 1h-.885l-1.276 13.472A4.98 4.98 0 0 1 14.861 24H9.134a4.98 4.98 0 0 1-4.977-4.521L2.861 6h-.86a1 1 0 1 1 0-2h4.101a5.01 5.01 0 0 1 4.899-4h2A5.009 5.009 0 0 1 17.9 4h4.101a1 1 0 0 1 1 1ZM8.172 4h7.656A3.004 3.004 0 0 0 13 2h-2a3.004 3.004 0 0 0-2.828 2Zm10.934 2H4.87l1.278 13.287A2.987 2.987 0 0 0 9.134 22h5.727a2.988 2.988 0 0 0 2.987-2.718L19.106 6Z"/></svg>