<svg xmlns="http://www.w3.org/2000/svg" fill="none" viewBox="0 0 320 378.27"><path fill="#F1F1F1" d="M268.83 97.63c28.75 25.92 39.35 76.45 28.44 121.14-10.99 44.68-43.43 83.54-87.78 109.44-44.35 25.84-100.52 38.84-138.04 18.54-37.51-20.31-56.18-73.76-65.63-126.21-9.38-52.46-9.53-103.83 15.45-128.91C46.24 66.64 96.29 67.87 144.78 69.1c48.5 1.31 95.38 2.62 124.05 28.53Z"/><path fill="#E49D75" fill-rule="evenodd" d="M236.01 362.03h9.33v6.23h-9.33v-6.23ZM284.53 356.02l6.81-5.5 4.87 6.04-6.81 5.5-4.87-6.04ZM251.12 107.62h.42a3.48 3.48 0 0 1 3.48 3.48v1.79a3.48 3.48 0 0 1-3.48 3.48h-.42a3.48 3.48 0 0 1-3.48-3.48v-1.79a3.48 3.48 0 0 1 3.48-3.48Z"/><path fill="#5FC5D1" d="M254.43 239.09c1.27 2.9 10.98 61.25 12.41 66.77 1.42 5.52 24.26 41.51 25.82 43.66.47 3.11-6.58 8.37-9.92 8.37-3.35-2.64-42.42-59.29-43.36-61.81-.93-2.51-4.08-62.69 15.05-56.99Z"/><path fill="#6BD5E1" d="M213.64 229.42c-.44 2.41 6.16 57.48 6.98 64.88.82 7.39 13.47 66.98 14.59 68.46 1.12 1.49 9.63 1.17 11.1.43 1.47-.75-2.87-62.13-2.87-66.58 0-4.45 11.4-45.5 9.94-57.39-1.47-11.89-39.74-9.8-39.74-9.8Z"/><path fill="#E49D75" fill-rule="evenodd" d="M237.09 162.66h8.92v15.53h-8.92v-15.53Z"/><path fill="#E0E0E0" fill-rule="evenodd" d="M49.58 57.53h141.38a9.46 9.46 0 0 1 9.46 9.48v141.47a9.46 9.46 0 0 1-9.46 9.47H49.58a9.47 9.47 0 0 1-9.47-9.47V67.01a9.47 9.47 0 0 1 9.47-9.48Z"/><path fill="#A4A4A4" d="M130.29 130.63a14.83 14.83 0 0 0-18.39-23.17 14.86 14.86 0 0 0-1.65 23.17l-11.42 46.32h42.86l-11.4-46.32Z"/><path stroke="#E0E0E0" stroke-linecap="round" stroke-linejoin="round" stroke-width="13" d="M68.8 57.53a51.47 51.47 0 0 1 102.93 0"/><path fill="#E49D75" fill-rule="evenodd" d="M252.65 148.73c0 9.11-5.48 16.49-12.25 16.49-6.76 0-12.25-7.38-12.25-16.49 0-9.1 5.49-16.48 12.25-16.48 6.77 0 12.25 7.38 12.25 16.48Z"/><path fill="#FFD98E" d="M238.73 174.99c-14.85 0-28.08 41.23-25.54 54.91.75 4.04 36.29 12.19 41.72 11.05 1.93-2.63 9.81-65.96-16.18-65.96Z"/><path fill="#FFE4AD" d="M234.92 197.95c6.65-4.82-3.98-28.21-6.46-28.61-4.57-.74-15.95 8.03-15.59 11.71.19 1.95 15.28 21.82 22.05 16.9Z"/><path fill="#E49D75" d="M214.98 179.32c-1.79-2.15-6.27-12.68-6.76-15.18-.49-2.5-1.69-40.04-1.69-42.26 0-2.23-2.95-7.84-2.95-11.18 0-3.35 3.4-7.89 5.13-7.95 1.85 1.32 4.42 9.02 4.54 10.99.64-4.23 3.7-5.2 4.54-5.2.83 0 .72 6.53-2.74 10.93.12 3.23 4.22 35.21 4.89 37.06.66 1.85 8.21 13.98 8.2 15.06-.02 1.07-13.16 7.73-13.16 7.73Z"/><path fill="#A4A4A4" fill-rule="evenodd" d="m156.44 99.07 149.86 20.49-.58 4.28-149.86-20.48.58-4.29Z"/><path fill="#A4A4A4" fill-rule="evenodd" d="m155.86 103.35 9.16 1.26-1.69 12.4-9.17-1.25 1.7-12.41ZM168.92 105.14l4.93.68-1.7 12.4-4.92-.67 1.69-12.41Z"/><path fill="#E49D75" d="M255.42 140.43c-.35-2-.67-16.52-.13-18.57.54-2.05 2-3.54 2.66-6.6.22-1.06-.13-4.7-.85-4.85-1.54-.33-1.62 1.39-1.83 2.66-.78 4.33-2.38 3.53-3.12 3.43-.74-.1-3.28-.54-4.11-.56-.83-.02 1.29 1.69.64 4.43-.51 2.15-2.89 16.48-3.38 18.83 1.78.07 10.12 1.23 10.12 1.23Z"/><path fill="#A4A4A4" fill-rule="evenodd" d="m177.33 106.29 4.93.67-1.69 12.41-4.93-.67 1.69-12.41Z"/><path fill="#A4A4A4" fill-rule="evenodd" d="m155.86 103.36 26.4 3.61-.6 4.39-26.4-3.61.6-4.39Z"/><path fill="#A4A4A4" d="M310.3 110.88a11.2 11.2 0 0 0-10.44 17.9 11.27 11.27 0 0 0 11.77 4.07 11.27 11.27 0 0 0 8-13.7 11.27 11.27 0 0 0-5.19-6.84 11.28 11.28 0 0 0-4.14-1.43Zm6.05 12.15a7.68 7.68 0 0 1-5.63 6.35 7.6 7.6 0 0 1-9.55-6.93 7.62 7.62 0 1 1 15.18.58Z"/><path fill="#E49D75" d="M215.1 119.43c-.56-2.18-1.65-4.09-1.82-5.74v.05c-.12-1.97-2.69-9.68-4.54-10.99-1.73.06-5.13 4.6-5.13 7.95 0 2.46 1.6 6.13 2.45 8.79h9.02l.02-.06Z"/><path fill="#000" d="M229.37 138.41c0 5.7 4.02 9.22 10.39 11.18 0 7.8 1.2 8.14 1.2 12.89 0 10.24-1.74 5.12-1.74 22.8 0 10.65 4.46 16.45 12.67 16.45 9.93 0 15.63-10.51 15.63-16.17 0-7.19-7.11-19.67-7.61-30.04-.68-13.95-5.02-25.61-15.88-25.61-9.29 0-14.66 3.45-14.66 8.5Z"/><path fill="#E49D75" fill-rule="evenodd" d="M243.68 150.92a3.3 3.3 0 1 1-6.59.01 3.3 3.3 0 0 1 6.59-.01Z"/><path fill="#000" fill-rule="evenodd" d="m296.2 355.34 5.28 7.21-11.05 15.64-10.42.07.13-5.29 4.19-1.85 3.72-9.19 8.15-6.59Z"/><path fill="#000" d="M245.96 367.74v10.53h-30.92v-4.66l20.4-5.87h10.52Z"/></svg>